<svg xmlns="http://www.w3.org/2000/svg" width="32" height="32" viewBox="0 0 64 64" fill="none">
  <rect width="64" height="64" rx="14" fill="#1F3A25"/>
  <rect x="20" y="14" width="28" height="38" rx="7" fill="#F5D86D"/>
  <path d="M26 14h18a4 4 0 0 1 4 4v3H26a6 6 0 0 0-6 6v-7a6 6 0 0 1 6-6Z" fill="#FFF1A8"/>
  <rect x="16" y="21" width="28" height="32" rx="7" fill="#B9DE74"/>
  <path d="M23 30h13M23 37h13M23 44h8" stroke="#31522B" stroke-width="3.5" stroke-linecap="round"/>
  <path d="M39 24h5v19l-2.5-2.5L39 43V24Z" fill="#4FB6FF"/>
</svg>
