<svg xmlns="http://www.w3.org/2000/svg" width="48" height="48" viewBox="0 0 1024 1024" fill="none" role="img" aria-labelledby="title desc">
  <title id="title">DotCraft Developer</title>
  <desc id="desc">A transparent vector icon of the DotCraft terminal robot with a monocle over its terminal prompt and an orange code card.</desc>
  <defs>
    <linearGradient id="blue" x1="279" y1="766" x2="736" y2="334" gradientUnits="userSpaceOnUse">
      <stop offset="0" stop-color="#2458f7"/>
      <stop offset=".46" stop-color="#5f82f7"/>
      <stop offset="1" stop-color="#8fa5ff"/>
    </linearGradient>
    <linearGradient id="blue-mark" x1="380" y1="696" x2="492" y2="557" gradientUnits="userSpaceOnUse">
      <stop offset="0" stop-color="#2257f5"/>
      <stop offset=".55" stop-color="#577df7"/>
      <stop offset="1" stop-color="#8ca2ff"/>
    </linearGradient>
    <linearGradient id="yellow" x1="481" y1="174" x2="617" y2="713" gradientUnits="userSpaceOnUse">
      <stop offset="0" stop-color="#ffcf11"/>
      <stop offset="1" stop-color="#f6b500"/>
    </linearGradient>
    <linearGradient id="orange" x1="112" y1="646" x2="704" y2="456" gradientUnits="userSpaceOnUse">
      <stop offset="0" stop-color="#fb923c"/>
      <stop offset="1" stop-color="#f97316"/>
    </linearGradient>
    <filter id="soft-shadow" x="-12%" y="-12%" width="124%" height="124%">
      <feDropShadow dx="0" dy="18" stdDeviation="24" flood-color="#0b3d62" flood-opacity=".18"/>
    </filter>
    <filter id="inner-lift" x="-8%" y="-8%" width="116%" height="116%">
      <feDropShadow dx="0" dy="10" stdDeviation="16" flood-color="#163a88" flood-opacity=".1"/>
    </filter>
    <filter id="profile-lift" x="-16%" y="-16%" width="132%" height="132%">
      <feDropShadow dx="0" dy="12" stdDeviation="12" flood-color="#020617" flood-opacity=".2"/>
    </filter>
  </defs>

  <g transform="translate(512 512) scale(.88) translate(-512 -512)">
    <g transform="translate(512 528) scale(1.3) translate(-512 -512)">
      <g filter="url(#soft-shadow)">
        <rect x="201" y="365" width="622" height="513" rx="151" fill="#fff"/>
        <rect x="145" y="472" width="136" height="256" rx="58" fill="#fff"/>
        <rect x="743" y="472" width="136" height="256" rx="58" fill="#fff"/>
        <rect x="438" y="270" width="148" height="182" rx="2" fill="#fff"/>
        <circle cx="512" cy="229" r="116" fill="#fff"/>
      </g>

      <g filter="url(#inner-lift)">
        <rect x="243" y="408" width="538" height="426" rx="113" fill="url(#blue)"/>
        <rect x="188" y="514" width="90" height="171" rx="19" fill="url(#blue)"/>
        <rect x="746" y="514" width="90" height="171" rx="19" fill="url(#blue)"/>
        <rect x="479" y="337" width="66" height="119" rx="6" fill="url(#blue)"/>
      </g>

      <rect x="295" y="464" width="434" height="315" rx="78" fill="#fff"/>
      <circle cx="512" cy="229" r="73" fill="url(#yellow)"/>

      <circle cx="408" cy="634" r="88" fill="#fff" fill-opacity=".22"/>
      <path d="M387 568 477 634 387 700" stroke="url(#blue-mark)" stroke-width="38" stroke-linecap="round" stroke-linejoin="round"/>
      <path d="M408 789C408 766 408 743 408 721" stroke="#fff" stroke-width="22" stroke-linecap="round"/>
      <path d="M408 789C408 766 408 743 408 721" stroke="url(#orange)" stroke-width="9" stroke-linecap="round"/>
      <circle cx="408" cy="634" r="88" fill="none" stroke="#fff" stroke-width="20" stroke-opacity=".82"/>
      <circle cx="408" cy="634" r="88" fill="none" stroke="url(#orange)" stroke-width="16"/>
      <path d="M408 721 408 704" stroke="#fff" stroke-width="18" stroke-linecap="round"/>
      <path d="M408 721 408 704" stroke="url(#orange)" stroke-width="7" stroke-linecap="round"/>
      <path d="M531 696h116" stroke="url(#yellow)" stroke-width="27" stroke-linecap="round"/>
    </g>

    <g transform="rotate(8 874 683)" filter="url(#profile-lift)">
      <rect x="748" y="589" width="252" height="186" rx="36" fill="#fff" stroke="#fff" stroke-width="30"/>
      <rect x="748" y="589" width="252" height="186" rx="36" fill="#fff" stroke="url(#orange)" stroke-width="10"/>
      <rect x="779" y="620" width="190" height="28" rx="14" fill="url(#orange)"/>
      <path d="M832 683l-37 36 37 36" stroke="#0b1020" stroke-width="17" stroke-linecap="round" stroke-linejoin="round"/>
      <path d="M916 683l37 36-37 36" stroke="#0b1020" stroke-width="17" stroke-linecap="round" stroke-linejoin="round"/>
      <path d="M888 670l-33 98" stroke="url(#orange)" stroke-width="16" stroke-linecap="round"/>
    </g>
  </g>
</svg>
